# xmcd
# 
# Track frame offsets:
#     150
#     13680
#     33844
#     54080
#     74470
#     93857
#     114913
#     134342
#     152338
#     170325
#     188717
#     201114
# 
# Disc length: 2903
# 
# Revision: 0
# Processed by: cddbd v1.5.2PL0 Copyright (c) Steve Scherf et al.
# Submitted via: fre:ac v1.0.31
# 
DISCID=8c0b550c
DTITLE=Pino Daniele - Pino Latino
DYEAR=0
DGENRE=
TTITLE0=Toledo (strumentale)
TTITLE1='O cammello 'nnammurato
TTITLE2=Come un gelato all'equatore
TTITLE3=Samabccussì
TTITLE4=Sicily
TTITLE5=Samma in my mind
TTITLE6=Cumbà
TTITLE7=Annaverrà
TTITLE8=Femmena
TTITLE9=Dance of baia
TTITLE10=Notte che se ne va
TTITLE11=Carte e castuscelle
EXTD=
EXTT0=
EXTT1=
EXTT2=
EXTT3=
EXTT4=
EXTT5=
EXTT6=
EXTT7=
EXTT8=
EXTT9=
EXTT10=
EXTT11=
PLAYORDER=
